<svg id="SvgjsSvg1001" width="288" height="288" xmlns="http://www.w3.org/2000/svg" version="1.1" xmlns:xlink="http://www.w3.org/1999/xlink" xmlns:svgjs="http://svgjs.com/svgjs"><defs id="SvgjsDefs1002"></defs><g id="SvgjsG1008"><svg xmlns="http://www.w3.org/2000/svg" enable-background="new 0 0 42 42" overflow="visible" viewBox="0 0 42 42" width="288" height="288"><path d="M20.98,39 M20.98,39c0.008,0,0.016,0,0.02,0c0.426,0,0.75,0.328,0.75,0.75c0,0.426-0.324,0.75-0.75,0.75
	c-0.422,0-0.75-0.324-0.75-0.75C20.25,39.336,20.566,39.012,20.98,39z M29.98,37.5c0.008,0,0.012,0,0.02,0
	c0.426,0,0.75,0.328,0.75,0.75c0,0.426-0.324,0.75-0.75,0.75c-0.422,0-0.75-0.324-0.75-0.75C29.25,37.836,29.566,37.512,29.98,37.5z
	 M11.98,37.5c0.004,0,0.012,0,0.02,0c0.422,0,0.75,0.328,0.75,0.75c0,0.426-0.328,0.75-0.75,0.75c-0.426,0-0.75-0.324-0.75-0.75
	C11.25,37.836,11.566,37.512,11.98,37.5z M38.23,29.25c0.008,0,0.012,0,0.02,0c0.422,0,0.75,0.324,0.75,0.75
	c0,0.422-0.328,0.75-0.75,0.75S37.5,30.422,37.5,30C37.5,29.582,37.816,29.258,38.23,29.25z M3.73,29.25c0.008,0,0.012,0,0.02,0
	c0.422,0,0.75,0.324,0.75,0.75c0,0.422-0.328,0.75-0.75,0.75S3,30.422,3,30C3,29.582,3.316,29.258,3.73,29.25z M39.73,20.25
	c0.008,0,0.012,0,0.02,0c0.422,0,0.75,0.324,0.75,0.75c0,0.422-0.328,0.75-0.75,0.75S39,21.422,39,21
	C39,20.582,39.316,20.258,39.73,20.25z M2.23,20.25c0.004,0,0.012,0,0.02,0C2.672,20.25,3,20.574,3,21c0,0.422-0.328,0.75-0.75,0.75
	S1.5,21.422,1.5,21C1.5,20.582,1.816,20.258,2.23,20.25z M38.23,11.25c0.008,0,0.012,0,0.02,0c0.422,0,0.75,0.328,0.75,0.75
	s-0.328,0.75-0.75,0.75S37.5,12.422,37.5,12C37.5,11.582,37.816,11.262,38.23,11.25z M21,11.25c5.395,0,9.75,4.355,9.75,9.75
	c0,5.395-4.355,9.75-9.75,9.75c-5.391,0-9.75-4.355-9.75-9.75C11.25,15.605,15.609,11.25,21,11.25z M3.73,11.25
	c0.008,0,0.012,0,0.02,0c0.422,0,0.75,0.328,0.75,0.75s-0.328,0.75-0.75,0.75S3,12.422,3,12C3,11.582,3.316,11.262,3.73,11.25z
	 M29.98,3c0.008,0,0.012,0,0.02,0c0.426,0,0.75,0.328,0.75,0.75c0,0.426-0.324,0.75-0.75,0.75c-0.422,0-0.75-0.324-0.75-0.75
	C29.25,3.336,29.566,3.012,29.98,3z M11.98,3c0.004,0,0.012,0,0.02,0c0.422,0,0.75,0.328,0.75,0.75c0,0.426-0.328,0.75-0.75,0.75
	c-0.426,0-0.75-0.324-0.75-0.75C11.25,3.336,11.566,3.012,11.98,3z M20.98,1.5c0.008,0,0.016,0,0.02,0c0.426,0,0.75,0.328,0.75,0.75
	S21.426,3,21,3c-0.422,0-0.75-0.328-0.75-0.75C20.25,1.832,20.566,1.512,20.98,1.5z M21,0c-1.23,0-2.25,1.016-2.25,2.25
	c0,0.973,0.633,1.809,1.5,2.121v5.402c-0.508,0.036-1.008,0.102-1.5,0.204V8.25c0-0.414-0.336-0.75-0.75-0.75s-0.75,0.336-0.75,0.75
	v2.145c-0.52,0.183-1.02,0.402-1.5,0.66V9.75c0-0.199-0.078-0.391-0.219-0.531L12.75,6.438V5.871c0.871-0.312,1.5-1.148,1.5-2.121
	c0-1.234-1.016-2.25-2.25-2.25S9.75,2.516,9.75,3.75c0,0.973,0.633,1.809,1.5,2.121V6.75c0,0.199,0.078,0.391,0.219,0.531
	l2.781,2.778V12v0.004c-0.848,0.641-1.605,1.398-2.246,2.246H12h-1.937l-2.782-2.781c-0.14-0.141-0.332-0.219-0.531-0.219H5.871
	c-0.312-0.871-1.148-1.5-2.121-1.5C2.516,9.75,1.5,10.766,1.5,12s1.016,2.25,2.25,2.25c0.973,0,1.809-0.629,2.121-1.5h0.57
	l2.778,2.781c0.14,0.141,0.332,0.219,0.531,0.219h1.305c-0.258,0.48-0.477,0.984-0.66,1.504H8.25c-0.414,0-0.746,0.332-0.75,0.746
	c0,0.414,0.336,0.75,0.75,0.75h1.727c-0.098,0.488-0.164,0.988-0.2,1.5H4.371c-0.312-0.871-1.152-1.5-2.121-1.5
	C1.016,18.75,0,19.766,0,21c0,1.234,1.016,2.25,2.25,2.25c0.969,0,1.809-0.629,2.121-1.5h5.406c0.036,0.512,0.102,1.012,0.2,1.5
	H8.25c-0.414,0-0.75,0.336-0.75,0.75s0.336,0.75,0.75,0.75h2.145c0.183,0.52,0.406,1.02,0.66,1.5H9.75
	c-0.199,0-0.391,0.078-0.531,0.219l-2.778,2.785h-0.57c-0.312-0.871-1.148-1.5-2.121-1.5c-1.234,0-2.25,1.012-2.25,2.246
	s1.016,2.25,2.25,2.25c0.973,0,1.809-0.629,2.121-1.5H6.75c0.199,0,0.391-0.078,0.531-0.219l2.782-2.777H12c0.004,0,0.004,0,0.008,0
	c0.64,0.848,1.394,1.602,2.242,2.238c0,0.004,0,0.004,0,0.008v1.941l-2.781,2.777c-0.141,0.141-0.219,0.332-0.219,0.531v0.879
	c-0.867,0.313-1.5,1.148-1.5,2.121c0,1.234,1.016,2.25,2.25,2.25s2.25-1.016,2.25-2.25c0-0.969-0.629-1.809-1.5-2.117v-0.569
	l2.781-2.782c0.141-0.141,0.219-0.332,0.219-0.531v-1.305c0.48,0.258,0.98,0.477,1.5,0.66v2.145c0,0.414,0.336,0.75,0.75,0.75
	s0.75-0.336,0.75-0.75v-1.727c0.492,0.102,0.992,0.168,1.5,0.199v5.41c-0.867,0.313-1.5,1.148-1.5,2.121
	C18.75,40.984,19.77,42,21,42c1.234,0,2.25-1.016,2.25-2.246c0-0.973-0.629-1.813-1.5-2.121v-5.41
	c0.508-0.031,1.012-0.098,1.5-0.199v1.727c0,0.414,0.336,0.75,0.75,0.75s0.75-0.336,0.75-0.75v-2.141
	c0.52-0.184,1.02-0.406,1.5-0.66v1.301c0,0.199,0.078,0.391,0.223,0.531l2.777,2.782v0.569c-0.871,0.309-1.5,1.148-1.5,2.117
	c0,1.234,1.016,2.25,2.25,2.25s2.25-1.016,2.25-2.25c0-0.969-0.629-1.809-1.5-2.117V35.25c0-0.199-0.078-0.391-0.219-0.531
	l-2.781-2.777V30v-0.004c0.852-0.637,1.605-1.395,2.246-2.242H30h1.938l2.78,2.777c0.141,0.141,0.332,0.219,0.531,0.219h0.879
	c0.313,0.871,1.148,1.5,2.121,1.5c1.234,0,2.25-1.016,2.25-2.25s-1.016-2.246-2.25-2.246c-0.973,0-1.809,0.629-2.121,1.5h-0.57
	l-2.777-2.781c-0.141-0.141-0.332-0.219-0.531-0.219h-1.301c0.254-0.484,0.477-0.984,0.66-1.504h2.141c0.414,0,0.75-0.336,0.75-0.75
	s-0.336-0.75-0.75-0.75h-1.727c0.102-0.488,0.168-0.988,0.203-1.5h5.402c0.313,0.871,1.148,1.5,2.121,1.5
	c1.234,0,2.25-1.016,2.25-2.25c0-1.234-1.016-2.25-2.25-2.25c-0.973,0-1.809,0.629-2.121,1.5h-5.402
	c-0.035-0.508-0.102-1.012-0.203-1.5h1.727c0.414,0,0.75-0.336,0.75-0.75c-0.004-0.414-0.34-0.746-0.75-0.746h-2.141
	c-0.184-0.52-0.406-1.02-0.66-1.5h1.301c0.199-0.004,0.391-0.082,0.531-0.223l2.777-2.781h0.57c0.313,0.871,1.148,1.504,2.121,1.504
	c1.234,0,2.25-1.02,2.25-2.254c0-1.23-1.016-2.25-2.25-2.25c-0.973,0-1.809,0.633-2.121,1.5H35.25c-0.199,0-0.391,0.078-0.531,0.219
	l-2.78,2.785H30c0,0,0,0-0.004,0c-0.637-0.852-1.395-1.609-2.246-2.25c0-0.004,0-0.004,0-0.004v-1.937l2.781-2.782
	c0.141-0.14,0.219-0.332,0.219-0.531V5.871c0.871-0.308,1.5-1.148,1.5-2.117C32.25,2.52,31.234,1.5,30,1.5s-2.25,1.02-2.25,2.254
	c0,0.969,0.629,1.805,1.5,2.117v0.57l-2.777,2.782c-0.141,0.14-0.223,0.328-0.223,0.527v1.305c-0.48-0.258-0.98-0.477-1.5-0.66V8.25
	c0-0.414-0.336-0.75-0.75-0.75s-0.75,0.336-0.75,0.75v1.727c-0.488-0.098-0.992-0.168-1.5-0.2V4.371
	c0.871-0.308,1.5-1.148,1.5-2.121C23.25,1.02,22.234,0,21,0z" fill="#2d6cdf" class="color000 svgShape"></path><path d="M21,18.75 M21,18.75c1.254,0,2.25,0.996,2.25,2.25c0,1.25-0.996,2.25-2.25,2.25c-1.25,0-2.25-1-2.25-2.25
	C18.75,19.746,19.75,18.75,21,18.75z M21,17.25c-2.062,0-3.75,1.688-3.75,3.75c0,2.063,1.688,3.75,3.75,3.75
	c2.063,0,3.75-1.687,3.75-3.75C24.75,18.938,23.063,17.25,21,17.25z" fill="#2d6cdf" class="color000 svgShape"></path><path d="M21,15 M21,15c3.324,0,6,2.676,6,6c0,3.32-2.676,6-6,6c-3.32,0-6-2.68-6-6C15,17.676,17.68,15,21,15z M21,13.5
	c-4.133,0-7.5,3.367-7.5,7.5s3.367,7.5,7.5,7.5s7.5-3.367,7.5-7.5S25.133,13.5,21,13.5z" fill="#2d6cdf" class="color000 svgShape"></path></svg></g></svg>